<svg width="1000" height="266" viewBox="0 0 1000 266" fill="none" xmlns="http://www.w3.org/2000/svg">
<path d="M986.513 18.0627H274.033" stroke="#999999" stroke-width="1.96" stroke-miterlimit="10"/>
<path d="M53.0439 10.5166C43.7717 10.5166 39.2158 15.2932 39.2158 24.3849C39.2158 33.4765 43.7917 38.3535 53.0439 38.3535C57.8206 38.3535 61.3529 37.069 63.6408 34.5803V38.7147H66.8721V24.4049C66.8721 15.2932 62.2961 10.5367 53.0439 10.5367V10.5166ZM53.0439 35.7243C45.8389 35.7243 42.4471 31.9111 42.4471 24.4451C42.4471 16.9791 45.8389 13.1658 53.0439 13.1658C60.249 13.1658 63.6408 16.9791 63.6408 24.4451C63.6408 31.9111 60.249 35.7243 53.0439 35.7243Z" fill="#999999"/>
<path d="M87.4838 11.0785C83.8311 12.2025 82.366 15.1527 82.366 15.1527V10.0349H78.9541V39.0358H82.366V21.3142C82.366 21.3142 84.0719 16.8587 87.4838 15.1527C90.8957 13.4468 99.4253 13.4468 99.4253 13.4468V10.0349C99.4253 10.0349 90.8957 10.0349 87.4838 11.0785Z" fill="#999999"/>
<path d="M119.395 39.1964C114.137 39.1964 108.296 36.1258 108.296 31.6903H111.708C111.708 33.7174 115.662 35.8649 119.395 35.8649C127.664 35.8649 128.788 32.9146 128.788 30.0245V29.7837C128.788 29.7837 128.848 28.9608 128.025 28.0978C126.66 26.6528 123.59 25.85 119.375 25.85C111.909 25.85 108.276 23.4015 108.276 18.3439C108.276 16.0358 110.424 10.0149 120.218 10.0149C126.159 10.0149 130.454 13.9887 130.454 16.6781H127.042V16.7182C126.941 16.0358 124.553 13.3465 120.218 13.3465C113.254 13.3465 111.688 17.0393 111.688 18.3439C111.688 19.809 111.688 22.5184 119.375 22.5184C124.834 22.5184 128.627 23.6825 130.674 25.9905C132.22 27.7366 132.22 29.5428 132.18 30.1048C132.139 36.1258 127.824 39.1964 119.375 39.1964H119.395Z" fill="#999999"/>
<path d="M174.126 39.0358H174.046C168.787 39.0358 164.232 37.3098 161.101 34.1789C157.729 30.8072 156.003 25.9102 156.003 19.6283C156.003 0.220768 173.845 0 174.026 0C174.206 0 192.048 0.220768 192.048 19.6283C192.048 25.9102 190.342 30.7871 186.951 34.1789C183.82 37.3098 179.264 39.0358 174.126 39.0358ZM174.026 3.71292C173.403 3.71292 159.716 3.9939 159.716 19.6283C159.716 24.8866 161.061 28.9006 163.73 31.5498C166.178 33.9782 169.771 35.3029 173.965 35.3229H173.986C176.534 35.3229 181.05 34.8212 184.321 31.5498C186.971 28.9006 188.335 24.8866 188.335 19.6283C188.335 3.91362 174.668 3.71292 174.026 3.71292Z" fill="#999999"/>
<path d="M229.919 39.0358C229.919 39.0358 229.879 23.6824 229.879 20.2705C229.879 15.1527 224.761 10.0349 217.938 10.0349C211.114 10.0349 207.702 15.1527 207.702 15.1527V11.7408H204.29V39.0358H207.702V20.2705C207.702 20.2705 211.114 13.4468 217.938 13.4468C223.055 13.4468 226.467 18.5646 226.467 20.2705V39.0358H229.919Z" fill="#999999"/>
<path d="M3.69242 28.9809V20.8325H28.2378V17.521H3.69242V3.49215H29.2012V0H0.561523V0.260908V29.603C0.561523 34.8212 3.49172 38.1327 9.05107 38.1327H29.3216V34.9817H10.0144C6.52227 34.9817 3.67235 32.473 3.67235 28.9809" fill="#999999"/>
<path d="M705.896 262.775H726.99C730.863 262.775 734.014 259.624 734.014 255.75V203.288C734.014 199.414 737.165 196.263 741.038 196.263H767.43C789.045 196.263 803.676 207.141 803.676 228.234V256.292C803.676 260.165 806.827 263.316 810.701 263.316H831.132C835.005 263.316 838.156 260.165 838.156 256.292V221.37C838.156 221.37 838.156 221.33 838.156 221.31C838.156 195.119 822.201 183.077 804.278 176.755C826.897 170.132 838.136 156.966 838.176 127.865C838.237 90.7359 816.561 68.4182 775.759 68.4182H705.876C702.003 68.4182 698.852 71.5692 698.852 75.4427V255.75C698.852 259.624 702.003 262.775 705.876 262.775H705.896ZM769.879 157.528H741.038C737.165 157.528 734.014 154.377 734.014 150.504V106.15C734.014 102.276 737.165 99.1251 741.038 99.1251H769.879C788.082 99.1251 802.051 103.46 802.051 126.32C802.051 149.179 790.069 157.528 769.879 157.528Z" fill="#999999"/>
<path d="M570.847 258.62H547.325V192.751C547.325 183.679 549.051 174.989 552.463 166.941C555.875 158.913 560.571 151.868 566.452 145.988C572.312 140.127 579.317 135.411 587.244 132.019C595.232 128.587 603.942 126.861 613.194 126.861C622.447 126.861 630.655 128.607 638.563 132.039C646.39 135.431 653.394 140.107 659.395 145.928C665.436 151.808 670.273 158.853 673.765 166.881C677.277 174.949 679.064 183.659 679.064 192.751V198.511H655.542V192.751C655.542 187.011 654.418 181.512 652.19 176.434C649.922 171.256 646.852 166.72 643.038 162.927C639.245 159.134 634.689 156.063 629.531 153.775C624.434 151.547 618.934 150.403 613.215 150.403C607.495 150.403 601.975 151.527 596.898 153.775C591.72 156.043 587.184 159.114 583.391 162.927C579.598 166.72 576.507 171.276 574.239 176.434C572.011 181.532 570.867 187.031 570.867 192.751V258.62H570.847ZM558.805 247.14H559.347V192.771C559.347 185.425 560.812 178.381 563.682 171.818C566.512 165.335 570.385 159.615 575.222 154.799C580.039 149.982 585.759 146.088 592.262 143.258C598.824 140.388 605.869 138.923 613.215 138.923C620.56 138.923 627.585 140.388 634.167 143.258C640.65 146.108 646.37 149.982 651.207 154.799C656.023 159.615 659.917 165.335 662.747 171.838C664.874 176.675 666.199 181.772 666.761 187.031H667.303C666.761 181.612 665.376 176.414 663.269 171.517C660.379 164.874 656.385 159.053 651.427 154.237C646.43 149.38 640.57 145.486 634.027 142.636C627.564 139.847 620.58 138.422 613.215 138.422C605.849 138.422 598.343 139.826 591.8 142.656C585.217 145.466 579.437 149.36 574.6 154.176C569.783 158.993 565.91 164.813 563.08 171.477C560.27 178.1 558.845 185.265 558.845 192.791V247.16L558.805 247.14Z" fill="#999999"/>
<path d="M568.539 263.336H549.633C545.759 263.336 542.608 260.185 542.608 256.312V192.751C542.608 183.057 544.455 173.745 548.128 165.094C551.78 156.505 556.818 148.958 563.12 142.656C569.402 136.354 576.908 131.337 585.397 127.704C593.967 124.032 603.32 122.165 613.214 122.165C623.109 122.165 631.959 124.032 640.469 127.704C648.818 131.317 656.304 136.314 662.726 142.536C669.209 148.838 674.407 156.384 678.14 164.974C681.913 173.644 683.82 182.977 683.82 192.731V196.163C683.82 200.036 680.669 203.187 676.795 203.187H657.89C654.016 203.187 650.865 200.036 650.865 196.163V192.731C650.865 187.653 649.862 182.796 647.895 178.3C645.868 173.684 643.118 169.61 639.746 166.238C636.375 162.867 632.301 160.117 627.684 158.09C623.189 156.123 618.332 155.12 613.234 155.12C608.136 155.12 603.28 156.123 598.804 158.09C594.168 160.117 590.114 162.867 586.742 166.238C583.35 169.63 580.621 173.684 578.594 178.3C576.627 182.796 575.623 187.653 575.623 192.731V256.312C575.623 260.185 572.472 263.336 568.579 263.336H568.539ZM552.041 253.903H564.725C565.508 253.903 566.13 253.281 566.13 252.499V192.751C566.13 186.348 567.395 180.207 569.883 174.527C572.372 168.847 575.784 163.79 579.999 159.595C584.213 155.381 589.231 151.969 594.951 149.48C600.63 146.991 606.792 145.727 613.174 145.727C619.556 145.727 625.698 146.991 631.377 149.48C637.077 151.969 642.115 155.381 646.329 159.595C650.544 163.81 653.956 168.827 656.445 174.527C658.933 180.227 660.198 186.368 660.198 192.751V193.794H674.287V192.751C674.287 184.321 672.641 176.253 669.39 168.767C666.138 161.301 661.663 154.758 656.043 149.34C650.444 143.901 643.921 139.546 636.616 136.395C629.31 133.224 621.383 131.618 613.114 131.618C604.845 131.618 596.416 133.224 589.03 136.395C581.644 139.546 575.142 143.921 569.703 149.36C564.264 154.799 559.889 161.341 556.718 168.807C553.567 176.273 551.941 184.341 551.941 192.771V253.924H551.981L552.041 253.903ZM564.063 251.836H555.513C554.731 251.836 554.108 251.214 554.108 250.431V192.771C554.108 184.622 555.674 176.815 558.704 169.61C561.775 162.385 565.97 156.063 571.228 150.825C576.466 145.566 582.768 141.352 589.913 138.301C597.038 135.251 604.865 133.705 613.174 133.705C621.483 133.705 628.788 135.271 635.853 138.301C642.918 141.372 649.26 145.566 654.658 150.845C660.057 156.083 664.392 162.405 667.543 169.63C669.871 174.969 671.336 180.669 671.938 186.549L672.32 190.202C672.4 191.025 671.758 191.747 670.915 191.747H663.75C663.027 191.747 662.425 191.205 662.345 190.483L662.024 187.533C661.502 182.736 660.278 178.1 658.371 173.724C655.762 167.784 652.21 162.546 647.815 158.13C643.419 153.735 638.161 150.183 632.22 147.573C626.26 144.964 619.857 143.64 613.174 143.64C606.491 143.64 600.088 144.964 594.108 147.573C588.167 150.183 582.929 153.735 578.513 158.13C574.118 162.546 570.566 167.784 567.957 173.724C565.348 179.685 564.023 186.087 564.023 192.791V251.876L564.063 251.836Z" fill="#999999"/>
<path d="M362.923 198.17C362.923 196.163 362.923 196.203 362.923 196.203C362.923 188.175 362.421 176.414 358.909 168.105C355.396 159.816 351.041 153.073 344.96 147.012C338.899 140.951 331.614 136.094 323.345 132.581C315.036 129.069 306.065 127.263 296.692 127.263C287.319 127.263 278.127 129.049 269.879 132.581C261.69 136.094 254.465 140.931 248.404 147.012C242.343 153.073 237.486 160.358 233.974 168.627C230.441 176.956 228.655 185.907 228.655 195.28C228.655 204.652 230.441 213.844 233.974 222.093C237.486 230.302 242.343 237.527 248.404 243.568C254.445 249.629 261.69 254.466 269.879 257.998C278.107 261.53 287.139 263.316 296.692 263.316C304.118 263.316 311.403 262.072 318.307 259.624C325.111 257.195 331.433 253.884 337.053 249.769C342.732 245.615 347.77 240.597 352.005 234.817C354.333 231.666 356.36 228.315 358.106 224.802C358.848 223.337 357.805 221.591 356.159 221.591H330.851C330.189 221.591 329.566 221.892 329.165 222.414C326.717 225.445 323.847 228.094 320.535 230.402C313.631 235.199 305.844 237.527 296.712 237.527C291.394 237.527 286.356 236.583 281.72 234.717C276.943 232.79 272.588 230.161 268.755 226.89C264.982 223.678 261.851 219.785 259.402 215.309C258.359 213.423 257.456 211.416 256.693 209.349C256.492 208.787 256.914 208.185 257.516 208.185C257.516 208.185 350.178 208.185 356.019 208.185C360.032 208.185 362.923 204.191 362.923 198.17ZM259.402 175.33C261.831 170.814 264.982 166.881 268.735 163.67C272.568 160.398 276.943 157.769 281.7 155.842C286.336 153.976 291.374 153.033 296.692 153.033C302.011 153.033 306.847 153.996 311.584 155.862C316.421 157.789 320.816 160.398 324.649 163.67C328.402 166.881 331.553 170.794 333.982 175.33C334.684 176.635 335.326 177.959 335.888 179.304C336.511 180.769 335.447 182.375 333.861 182.375H259.523C257.937 182.375 256.894 180.749 257.496 179.304C258.058 177.939 258.7 176.615 259.402 175.33Z" fill="#999999" stroke="#999999" stroke-width="2.5" stroke-miterlimit="10"/>
<path d="M27.1144 124.513H7.02444C3.15097 124.513 0 127.664 0 131.538V256.312C0 260.185 3.15097 263.336 7.02444 263.336H27.1144C30.9878 263.336 34.1388 260.185 34.1388 256.312V131.538C34.1388 127.664 30.9878 124.513 27.1144 124.513Z" fill="#999999"/>
<path d="M27.1144 68.4583H7.02444C3.15097 68.4583 0 71.6092 0 75.4827V94.4688C0 98.3422 3.15097 101.493 7.02444 101.493H27.1144C30.9878 101.493 34.1388 98.3422 34.1388 94.4688V75.4827C34.1388 71.6092 30.9878 68.4583 27.1144 68.4583Z" fill="#999999"/>
<path d="M69.0801 76.0244V256.312C69.0801 260.185 72.231 263.336 76.1045 263.336H98.1613C102.035 263.336 105.186 260.185 105.186 256.312V186.087C105.186 182.214 108.337 179.063 112.21 179.063H164.01C167.884 179.063 171.035 182.214 171.035 186.087V256.312C171.035 260.185 174.186 263.336 178.059 263.336H200.136C204.01 263.336 207.161 260.185 207.161 256.312V76.0244C207.161 72.151 204.01 69 200.136 69H178.059C174.186 69 171.035 72.151 171.035 76.0244V141.573C171.035 145.446 167.884 148.597 164.01 148.597H112.21C108.337 148.597 105.186 145.446 105.186 141.573V76.0244C105.186 72.151 102.035 69 98.1613 69H76.1045C72.231 69 69.0801 72.151 69.0801 76.0244Z" fill="#999999"/>
<path d="M499.196 228.896V252.077H510.797V194.135C510.797 186.108 509.292 178.541 506.281 171.416C503.271 164.312 499.176 158.17 493.998 152.992C488.82 147.814 482.679 143.72 475.574 140.71C468.47 137.699 460.903 136.194 452.875 136.194C444.847 136.194 437.06 137.699 430.036 140.71C422.991 143.72 416.91 147.814 411.732 152.992C406.554 158.17 402.46 164.312 399.449 171.416C396.439 178.521 394.934 186.108 394.934 194.135C394.934 202.163 396.439 209.951 399.449 216.975C402.46 224.019 406.554 230.101 411.732 235.279C416.91 240.457 423.011 244.551 430.036 247.561C437.06 250.572 444.687 252.077 452.875 252.077C462.147 252.077 470.858 249.95 479.066 245.695C487.255 241.46 493.978 235.841 499.237 228.896M452.855 240.497C446.533 240.497 440.532 239.273 434.893 236.784C429.253 234.315 424.356 230.984 420.161 226.829C416.007 222.655 412.675 217.738 410.207 212.098C407.738 206.458 406.494 200.478 406.494 194.135C406.494 187.793 407.738 181.813 410.207 176.173C412.675 170.533 416.007 165.636 420.161 161.442C424.336 157.267 429.233 153.956 434.893 151.487C440.532 149.018 446.513 147.774 452.855 147.774C459.197 147.774 465.178 149.018 470.818 151.487C476.457 153.956 481.354 157.287 485.549 161.442C489.723 165.616 493.035 170.513 495.504 176.173C497.972 181.813 499.217 187.793 499.217 194.135C499.217 200.478 497.972 206.458 495.504 212.098C493.035 217.738 489.703 222.635 485.549 226.829C481.394 230.984 476.457 234.315 470.818 236.784C465.178 239.252 459.197 240.497 452.855 240.497Z" fill="#999999"/>
<path d="M516.276 257.596H493.677V242.584C490.025 245.635 485.971 248.324 481.555 250.612C472.624 255.248 462.951 257.596 452.835 257.596C443.924 257.596 435.515 255.931 427.828 252.639C420.182 249.348 413.438 244.832 407.799 239.192C402.159 233.553 397.623 226.809 394.352 219.163C391.06 211.476 389.395 203.067 389.395 194.156C389.395 185.245 391.06 177.036 394.352 169.309C397.643 161.582 402.159 154.799 407.819 149.139C413.478 143.479 420.222 138.964 427.848 135.692C435.535 132.401 443.944 130.735 452.855 130.735C461.766 130.735 469.955 132.401 477.722 135.692C485.449 138.964 492.232 143.499 497.892 149.159C503.552 154.819 508.067 161.602 511.359 169.309C514.65 177.076 516.316 185.445 516.316 194.156V257.596H516.276ZM504.696 246.598H505.298V194.156C505.298 186.91 503.913 179.986 501.204 173.584C498.494 167.182 494.741 161.542 490.105 156.906C485.449 152.25 479.849 148.517 473.427 145.807C467.025 143.098 460.121 141.713 452.855 141.713C445.59 141.713 438.505 143.078 432.204 145.787C425.861 148.497 420.282 152.25 415.606 156.906C410.95 161.562 407.217 167.162 404.487 173.584C401.778 179.986 400.393 186.89 400.393 194.156C400.393 201.421 401.758 208.526 404.467 214.807C407.176 221.17 410.929 226.749 415.586 231.405C420.242 236.061 425.821 239.794 432.183 242.524C438.485 245.233 445.45 246.598 452.835 246.598C461.184 246.598 469.132 244.671 476.498 240.838C483.923 236.985 490.065 231.867 494.821 225.605L504.696 212.54V246.618V246.598ZM452.835 245.976C445.751 245.976 438.967 244.571 432.665 241.801C426.423 239.072 420.904 235.319 416.268 230.703C411.632 226.047 407.899 220.527 405.149 214.306C402.38 207.984 400.995 201.2 400.995 194.136C400.995 187.071 402.4 180.287 405.149 173.965C407.879 167.724 411.632 162.204 416.268 157.568C420.904 152.932 426.443 149.199 432.665 146.45C438.987 143.68 445.771 142.295 452.835 142.295C459.9 142.295 466.683 143.7 472.985 146.45C479.247 149.199 484.746 152.932 489.382 157.568C494.019 162.204 497.752 167.724 500.501 173.965C503.271 180.287 504.656 187.071 504.656 194.136C504.656 201.2 503.251 207.984 500.501 214.306C497.772 220.567 494.019 226.067 489.382 230.703C484.746 235.359 479.207 239.092 472.985 241.821C466.683 244.591 459.9 245.976 452.815 245.976H452.855H452.835ZM452.835 153.273C447.296 153.273 441.998 154.377 437.08 156.525C432.103 158.712 427.708 161.683 424.035 165.335C420.382 169.008 417.412 173.403 415.224 178.381C413.077 183.298 411.973 188.596 411.973 194.136C411.973 199.675 413.057 204.973 415.224 209.89C417.412 214.868 420.382 219.263 424.035 222.936C427.708 226.609 432.103 229.559 437.08 231.746C441.978 233.894 447.296 234.998 452.835 234.998C458.375 234.998 463.673 233.914 468.59 231.766C473.567 229.579 477.963 226.608 481.636 222.956C485.288 219.303 488.259 214.908 490.446 209.91C492.594 204.993 493.698 199.695 493.698 194.156C493.698 188.616 492.594 183.318 490.446 178.401C488.259 173.423 485.288 169.028 481.636 165.375C477.983 161.723 473.588 158.752 468.59 156.565C463.673 154.417 458.375 153.313 452.835 153.313V153.273Z" fill="#999999"/>
<path d="M516.537 257.837H493.457V243.106C489.885 246.036 485.971 248.605 481.696 250.813C472.725 255.469 463.011 257.837 452.856 257.837C443.925 257.837 435.475 256.151 427.769 252.86C420.082 249.569 413.338 245.013 407.659 239.353C401.979 233.673 397.443 226.93 394.172 219.243C390.88 211.536 389.194 203.087 389.194 194.156C389.194 185.225 390.88 176.976 394.172 169.209C397.463 161.442 402.019 154.638 407.679 148.958C413.358 143.279 420.122 138.743 427.789 135.471C435.495 132.16 443.945 130.494 452.876 130.494C461.807 130.494 470.036 132.18 477.823 135.471C485.59 138.763 492.393 143.319 498.073 148.978C503.753 154.658 508.309 161.462 511.58 169.209C514.872 176.996 516.558 185.405 516.558 194.176V257.877L516.517 257.837H516.537ZM504.957 246.357H505.058V194.156C505.058 186.951 503.693 180.047 500.983 173.684C498.274 167.302 494.561 161.703 489.925 157.087C485.309 152.471 479.709 148.738 473.307 146.048C466.945 143.339 460.061 141.974 452.836 141.974C445.611 141.974 438.546 143.339 432.264 146.028C425.942 148.738 420.383 152.451 415.747 157.087C411.131 161.703 407.398 167.302 404.688 173.684C401.979 180.047 400.634 186.931 400.634 194.156C400.634 201.381 401.999 208.445 404.688 214.727C407.398 221.069 411.111 226.609 415.747 231.245C420.383 235.881 425.922 239.594 432.264 242.303C438.526 244.993 445.47 246.357 452.836 246.357C461.125 246.357 469.052 244.431 476.378 240.617C483.763 236.784 489.885 231.686 494.601 225.445L504.937 211.777V246.337L504.957 246.357ZM452.836 246.257C445.711 246.257 438.907 244.852 432.565 242.062C426.303 239.333 420.764 235.56 416.088 230.884C411.412 226.207 407.659 220.668 404.909 214.406C402.119 208.064 400.714 201.24 400.714 194.136C400.714 187.031 402.119 180.207 404.909 173.865C407.659 167.603 411.412 162.064 416.068 157.408C420.744 152.732 426.283 148.978 432.545 146.229C438.887 143.439 445.711 142.034 452.816 142.034C459.92 142.034 466.744 143.439 473.086 146.229C479.368 148.978 484.907 152.732 489.564 157.408C494.22 162.084 497.993 167.603 500.743 173.865C503.532 180.227 504.937 187.051 504.937 194.136C504.937 201.22 503.532 208.064 500.743 214.406C497.993 220.668 494.24 226.227 489.564 230.884C484.887 235.56 479.348 239.313 473.086 242.062C466.764 244.852 459.941 246.257 452.816 246.257H452.836ZM452.836 153.534C447.337 153.534 442.078 154.618 437.181 156.745C432.224 158.913 427.869 161.863 424.216 165.516C420.563 169.169 417.613 173.524 415.446 178.481C413.318 183.358 412.235 188.636 412.235 194.136C412.235 199.635 413.318 204.913 415.446 209.79C417.613 214.747 420.563 219.102 424.216 222.755C427.869 226.408 432.224 229.358 437.181 231.526C442.058 233.653 447.337 234.737 452.836 234.737C458.335 234.737 463.613 233.653 468.49 231.526C473.448 229.358 477.803 226.408 481.455 222.755C485.108 219.102 488.058 214.767 490.226 209.79C492.353 204.913 493.437 199.635 493.437 194.136C493.437 188.636 492.353 183.378 490.226 178.481C488.058 173.524 485.108 169.169 481.455 165.516C477.803 161.863 473.448 158.913 468.49 156.745C463.613 154.618 458.335 153.534 452.836 153.534Z" fill="#999999"/>
<path d="M515.213 263.336H494.781C491.008 263.336 487.958 260.286 487.958 256.513C487.958 255.268 486.633 254.445 485.529 255.027L484.225 255.71C474.471 260.788 463.914 263.336 452.856 263.336C443.162 263.336 434.01 261.51 425.601 257.897C417.272 254.325 409.926 249.388 403.765 243.226C397.603 237.065 392.666 229.719 389.094 221.39C385.501 213.001 383.675 203.829 383.675 194.136C383.675 184.442 385.501 175.491 389.074 167.041C392.646 158.632 397.583 151.226 403.765 145.065C409.946 138.883 417.272 133.966 425.601 130.394C434.01 126.801 443.182 124.955 452.856 124.955C462.529 124.955 471.48 126.781 479.95 130.374C488.359 133.946 495.765 138.883 501.946 145.065C508.128 151.246 513.065 158.632 516.638 167.041C520.23 175.531 522.056 184.643 522.056 194.136V256.513C522.056 260.286 518.986 263.336 515.213 263.336ZM501.525 252.338H508.489C509.894 252.338 511.058 251.194 511.058 249.769V194.136C511.058 186.108 509.533 178.441 506.522 171.316C503.512 164.211 499.357 157.99 494.179 152.812C489.001 147.634 482.78 143.499 475.675 140.469C468.57 137.458 460.883 135.933 452.856 135.933C444.828 135.933 436.96 137.458 429.936 140.469C422.911 143.479 416.73 147.634 411.552 152.812C406.374 157.99 402.239 164.211 399.209 171.316C396.198 178.421 394.673 186.088 394.673 194.136C394.673 202.184 396.198 210.031 399.209 217.055C402.219 224.1 406.374 230.261 411.552 235.459C416.73 240.637 422.911 244.772 429.936 247.802C436.96 250.813 444.667 252.338 452.856 252.338C462.128 252.338 470.979 250.191 479.167 245.936C483.081 243.909 486.733 241.52 489.985 238.851L494.781 234.918C496.447 233.553 498.956 234.737 498.956 236.904V249.769C498.956 251.174 500.1 252.338 501.525 252.338ZM510.536 251.856H502.047C500.642 251.856 499.518 250.733 499.478 249.348L499.418 246.357V228.174L498.956 228.776C493.738 235.68 486.974 241.3 478.866 245.514C470.758 249.729 461.967 251.856 452.795 251.856C444.667 251.856 437.02 250.351 430.056 247.361C423.072 244.37 416.951 240.256 411.833 235.138C406.715 230.02 402.601 223.879 399.59 216.895C396.6 209.931 395.095 202.284 395.095 194.156C395.095 186.027 396.6 178.581 399.59 171.537C402.581 164.492 406.695 158.331 411.833 153.193C416.971 148.055 423.092 143.941 430.056 140.971C437.02 137.98 444.667 136.475 452.795 136.475C460.924 136.475 468.37 137.98 475.414 140.971C482.459 143.961 488.62 148.075 493.758 153.193C498.896 158.331 502.99 164.492 506 171.537C508.991 178.581 510.516 186.188 510.516 194.156V251.856H510.536ZM452.835 147.533C446.493 147.533 440.432 148.798 434.773 151.266C429.133 153.755 424.156 157.107 419.981 161.281C415.807 165.456 412.435 170.433 409.966 176.073C407.498 181.712 406.233 187.794 406.233 194.136C406.233 200.478 407.498 206.539 409.966 212.198C412.435 217.838 415.807 222.795 419.981 226.99C424.156 231.164 429.133 234.536 434.773 237.005C440.412 239.493 446.493 240.738 452.835 240.738C459.178 240.738 465.259 239.473 470.878 237.005C476.518 234.536 481.495 231.164 485.67 226.99C489.844 222.815 493.216 217.838 495.685 212.198C498.153 206.559 499.418 200.478 499.418 194.136C499.418 187.794 498.153 181.732 495.685 176.073C493.216 170.433 489.844 165.456 485.67 161.281C481.515 157.127 476.518 153.735 470.878 151.266C465.219 148.798 459.157 147.533 452.835 147.533ZM452.835 240.276C446.554 240.276 440.553 239.032 434.973 236.583C429.394 234.155 424.477 230.823 420.322 226.669C416.188 222.514 412.836 217.597 410.408 212.018C407.959 206.438 406.715 200.417 406.715 194.156C406.715 187.894 407.959 181.893 410.408 176.293C412.856 170.714 416.188 165.777 420.322 161.643C424.457 157.508 429.394 154.177 434.973 151.728C440.573 149.279 446.574 148.035 452.835 148.035C459.097 148.035 465.098 149.279 470.698 151.728C476.297 154.177 481.214 157.508 485.349 161.643C489.483 165.777 492.815 170.694 495.263 176.293C497.712 181.893 498.956 187.894 498.956 194.156C498.956 200.417 497.712 206.418 495.263 212.018C492.815 217.617 489.483 222.534 485.349 226.669C481.214 230.803 476.277 234.155 470.698 236.583C465.118 239.032 459.117 240.276 452.835 240.276ZM452.835 159.053C448.099 159.053 443.583 159.977 439.389 161.823C435.074 163.73 431.26 166.279 428.109 169.45C424.958 172.621 422.39 176.414 420.483 180.729C418.636 184.903 417.713 189.439 417.713 194.176C417.713 198.912 418.636 203.448 420.483 207.623C422.39 211.938 424.938 215.751 428.109 218.902C431.26 222.053 435.074 224.622 439.369 226.508C443.543 228.355 448.079 229.278 452.815 229.278C457.552 229.278 462.088 228.355 466.262 226.508C470.577 224.602 474.391 222.053 477.541 218.882C480.692 215.731 483.261 211.917 485.168 207.602C487.014 203.428 487.938 198.892 487.938 194.156C487.938 189.419 487.014 184.903 485.168 180.709C483.261 176.394 480.713 172.581 477.541 169.43C474.391 166.279 470.597 163.71 466.262 161.803C462.088 159.957 457.552 159.033 452.815 159.033L452.835 159.053Z" fill="#999999"/>
<path d="M983.041 94.3484C971.099 77.8711 952.715 67.8362 925.24 67.8362C897.764 67.8362 879.159 77.8711 867.218 94.3484C853.37 113.696 850.259 139.245 850.259 165.516C850.259 191.788 853.37 217.818 867.218 237.165C879.159 253.643 897.543 263.437 925.24 263.437C952.936 263.437 971.099 253.643 983.041 237.165C996.889 217.818 1000 192.028 1000 165.516C1000 139.004 996.889 113.696 983.041 94.3484ZM965.379 203.629C965.379 224.782 947.618 240.818 925.24 241.782C902.621 240.818 884.859 224.802 884.859 203.629V171.417C892.426 176.514 905.11 179.123 915.968 180.348V180.308C918.978 180.609 922.029 180.829 925.119 180.829C928.21 180.829 931.441 180.609 934.532 180.288C944.808 179.224 957.251 176.454 965.379 172.199V203.629ZM965.62 161.141C958.074 166.239 936.539 171.096 925.24 170.875C914.241 170.875 892.205 167.041 884.598 161.904V127.865C884.598 107.916 902.46 90.1739 925.24 89.4915C949.163 90.1739 965.62 107.936 965.62 127.865V161.121V161.141Z" fill="#F29600"/>
</svg>
