<svg width="364" height="73" viewBox="0 0 364 73" fill="none" xmlns="http://www.w3.org/2000/svg">
<g clip-path="url(#clip0_663_2944)">
<path d="M256.946 70.9503H264.624C266.034 70.9503 267.181 69.8034 267.181 68.3934V49.297C267.181 47.8871 268.328 46.7401 269.738 46.7401H279.344C287.212 46.7401 292.538 50.6997 292.538 58.3777V68.5906C292.538 70.0006 293.685 71.1475 295.095 71.1475H302.532C303.942 71.1475 305.089 70.0006 305.089 68.5906V55.8792C305.089 55.8792 305.089 55.8646 305.089 55.8573C305.089 46.3237 299.281 41.9405 292.757 39.6393C300.99 37.2285 305.081 32.4361 305.096 21.8433C305.118 8.32822 297.228 0.20459 282.376 0.20459H256.939C255.529 0.20459 254.382 1.35154 254.382 2.76149V68.3934C254.382 69.8034 255.529 70.9503 256.939 70.9503H256.946ZM280.236 32.6407H269.738C268.328 32.6407 267.181 31.4937 267.181 30.0838V13.9461C267.181 12.5361 268.328 11.3892 269.738 11.3892H280.236C286.862 11.3892 291.946 12.9672 291.946 21.288C291.946 29.6089 287.585 32.648 280.236 32.648V32.6407Z" fill="#494949"/>
<path d="M207.789 69.4381H199.227V45.4617C199.227 42.1597 199.855 38.9964 201.097 36.067C202.339 33.1448 204.048 30.5806 206.189 28.4401C208.322 26.3069 210.871 24.5901 213.757 23.3555C216.665 22.1063 219.835 21.478 223.203 21.478C226.571 21.478 229.559 22.1136 232.437 23.3628C235.286 24.5974 237.836 26.2996 240.02 28.4182C242.219 30.5587 243.98 33.1229 245.251 36.045C246.529 38.9818 247.179 42.1524 247.179 45.4617V47.5584H238.617V45.4617C238.617 43.3724 238.208 41.3707 237.397 39.5224C236.572 37.6376 235.454 35.9866 234.066 34.6059C232.685 33.2251 231.027 32.1074 229.15 31.2746C227.294 30.4637 225.292 30.0473 223.21 30.0473C221.128 30.0473 219.119 30.4564 217.271 31.2746C215.386 32.1001 213.735 33.2178 212.354 34.6059C210.974 35.9866 209.849 37.6449 209.023 39.5224C208.212 41.378 207.796 43.3797 207.796 45.4617V69.4381H207.789ZM203.405 65.2594H203.603V45.469C203.603 42.7953 204.136 40.231 205.18 37.8422C206.211 35.4825 207.62 33.4005 209.381 31.6472C211.134 29.8939 213.216 28.4766 215.583 27.4466C217.972 26.4019 220.536 25.8686 223.21 25.8686C225.884 25.8686 228.441 26.4019 230.837 27.4466C233.197 28.4839 235.279 29.8939 237.039 31.6472C238.793 33.4005 240.21 35.4825 241.24 37.8495C242.014 39.6101 242.497 41.4657 242.701 43.3797H242.898C242.701 41.4072 242.197 39.5151 241.43 37.7326C240.378 35.3145 238.924 33.1959 237.12 31.4426C235.301 29.6747 233.168 28.2575 230.786 27.2201C228.434 26.2046 225.891 25.686 223.21 25.686C220.529 25.686 217.797 26.1973 215.415 27.2274C213.019 28.2502 210.915 29.6674 209.155 31.4207C207.401 33.174 205.991 35.2926 204.961 37.718C203.939 40.1288 203.42 42.7368 203.42 45.4763V65.2667L203.405 65.2594Z" fill="#494949"/>
<path d="M206.948 71.1549H200.067C198.657 71.1549 197.51 70.0079 197.51 68.598V45.4617C197.51 41.9332 198.182 38.5435 199.519 35.3949C200.848 32.2681 202.682 29.5213 204.976 27.2274C207.263 24.9335 209.995 23.1071 213.085 21.7849C216.204 20.448 219.609 19.7686 223.21 19.7686C226.812 19.7686 230.034 20.448 233.131 21.7849C236.17 23.0998 238.895 24.9189 241.233 27.1836C243.592 29.4775 245.484 32.2243 246.843 35.351C248.217 38.507 248.911 41.904 248.911 45.4544V46.7036C248.911 48.1136 247.764 49.2605 246.354 49.2605H239.472C238.062 49.2605 236.915 48.1136 236.915 46.7036V45.4544C236.915 43.6062 236.55 41.8382 235.834 40.2018C235.096 38.5216 234.095 37.0386 232.868 35.8113C231.641 34.584 230.158 33.5831 228.477 32.8453C226.841 32.1293 225.073 31.7641 223.218 31.7641C221.362 31.7641 219.594 32.1293 217.965 32.8453C216.277 33.5831 214.802 34.584 213.574 35.8113C212.34 37.0459 211.346 38.5216 210.608 40.2018C209.892 41.8382 209.527 43.6062 209.527 45.4544V68.598C209.527 70.0079 208.38 71.1549 206.963 71.1549H206.948ZM200.943 67.7213H205.56C205.845 67.7213 206.072 67.4949 206.072 67.21V45.4617C206.072 43.1313 206.532 40.8958 207.438 38.8284C208.344 36.761 209.586 34.92 211.12 33.3932C212.654 31.859 214.48 30.6171 216.562 29.7112C218.63 28.8054 220.873 28.3451 223.196 28.3451C225.519 28.3451 227.754 28.8054 229.822 29.7112C231.896 30.6171 233.73 31.859 235.264 33.3932C236.798 34.9273 238.04 36.7537 238.946 38.8284C239.852 40.9031 240.312 43.1386 240.312 45.4617V45.8416H245.441V45.4617C245.441 42.3934 244.842 39.4567 243.658 36.7317C242.475 34.0141 240.846 31.6326 238.8 29.6601C236.762 27.6803 234.388 26.0951 231.728 24.9481C229.069 23.7938 226.184 23.2094 223.174 23.2094C220.164 23.2094 217.096 23.7938 214.407 24.9481C211.719 26.0951 209.352 27.6876 207.372 29.6674C205.392 31.6472 203.8 34.0287 202.645 36.7464C201.499 39.464 200.907 42.4008 200.907 45.469V67.7287H200.921L200.943 67.7213ZM205.319 66.9689H202.207C201.922 66.9689 201.696 66.7424 201.696 66.4575V45.469C201.696 42.503 202.266 39.6612 203.369 37.0386C204.486 34.4086 206.013 32.1074 207.927 30.2007C209.834 28.2867 212.128 26.7525 214.729 25.6421C217.322 24.5317 220.171 23.9692 223.196 23.9692C226.22 23.9692 228.879 24.539 231.451 25.6421C234.022 26.7598 236.331 28.2867 238.296 30.208C240.261 32.1147 241.839 34.4159 242.986 37.0459C243.833 38.9891 244.367 41.0639 244.586 43.2044L244.725 44.5339C244.754 44.8335 244.52 45.0965 244.213 45.0965H241.605C241.342 45.0965 241.123 44.8992 241.094 44.6362L240.977 43.5623C240.787 41.8163 240.341 40.1288 239.647 38.5362C238.698 36.3738 237.405 34.4671 235.805 32.8599C234.205 31.26 232.291 29.9669 230.128 29.0172C227.959 28.0675 225.628 27.5854 223.196 27.5854C220.763 27.5854 218.432 28.0675 216.255 29.0172C214.093 29.9669 212.186 31.26 210.579 32.8599C208.979 34.4671 207.686 36.3738 206.737 38.5362C205.787 40.7059 205.305 43.0363 205.305 45.4763V66.9835L205.319 66.9689Z" fill="#494949"/>
<path d="M132.104 47.4414C132.104 46.7109 132.104 46.7255 132.104 46.7255C132.104 43.8033 131.921 39.5223 130.643 36.4979C129.364 33.4807 127.779 31.0261 125.565 28.8199C123.359 26.6136 120.707 24.8457 117.697 23.5673C114.673 22.2888 111.407 21.6313 107.996 21.6313C104.584 21.6313 101.238 22.2815 98.2358 23.5673C95.2552 24.8457 92.6252 26.6063 90.419 28.8199C88.2128 31.0261 86.4449 33.678 85.1664 36.6878C83.8807 39.7196 83.2305 42.9778 83.2305 46.3894C83.2305 49.8011 83.8807 53.1469 85.1664 56.1495C86.4449 59.1374 88.2128 61.7673 90.419 63.9663C92.6179 66.1725 95.2552 67.9331 98.2358 69.2189C101.231 70.5046 104.518 71.1548 107.996 71.1548C110.699 71.1548 113.351 70.7019 115.864 69.8106C118.34 68.9267 120.642 67.7213 122.687 66.2236C124.754 64.7114 126.588 62.8851 128.13 60.7811C128.977 59.6342 129.715 58.4141 130.35 57.1357C130.621 56.6024 130.241 55.9668 129.642 55.9668H120.43C120.189 55.9668 119.962 56.0764 119.816 56.2664C118.925 57.3695 117.88 58.3338 116.675 59.1739C114.162 60.9199 111.327 61.7673 108.003 61.7673C106.067 61.7673 104.234 61.424 102.546 60.7446C100.807 60.0433 99.222 59.0862 97.8267 57.8955C96.4533 56.7266 95.3136 55.3093 94.4224 53.6802C94.0425 52.9935 93.7138 52.263 93.4361 51.5105C93.3631 51.306 93.5165 51.0868 93.7357 51.0868C93.7357 51.0868 127.465 51.0868 129.591 51.0868C131.052 51.0868 132.104 49.633 132.104 47.4414ZM94.4224 39.1278C95.3063 37.4841 96.4533 36.0523 97.8194 34.8834C99.2147 33.6926 100.807 32.7356 102.539 32.0343C104.226 31.3549 106.06 31.0115 107.996 31.0115C109.932 31.0115 111.692 31.3622 113.416 32.0416C115.177 32.7429 116.777 33.6926 118.172 34.8834C119.538 36.0523 120.685 37.4768 121.569 39.1278C121.825 39.6027 122.059 40.0848 122.263 40.5743C122.49 41.1076 122.103 41.692 121.526 41.692H94.4662C93.8891 41.692 93.5092 41.1003 93.7284 40.5743C93.9329 40.0775 94.1667 39.5954 94.4224 39.1278Z" fill="#494949" stroke="#494949" stroke-width="2.5" stroke-miterlimit="10"/>
<path d="M9.86963 20.6233H2.5569C1.14695 20.6233 0 21.7702 0 23.1802V68.598C0 70.0079 1.14695 71.1549 2.5569 71.1549H9.86963C11.2796 71.1549 12.4265 70.0079 12.4265 68.598V23.1802C12.4265 21.7702 11.2796 20.6233 9.86963 20.6233Z" fill="#494949"/>
<path d="M9.86963 0.219238H2.5569C1.14695 0.219238 0 1.36619 0 2.77614V9.68707C0 11.097 1.14695 12.244 2.5569 12.244H9.86963C11.2796 12.244 12.4265 11.097 12.4265 9.68707V2.77614C12.4265 1.36619 11.2796 0.219238 9.86963 0.219238Z" fill="#494949"/>
<path d="M25.1455 2.9734V68.598C25.1455 70.008 26.2925 71.1549 27.7024 71.1549H35.7311C37.141 71.1549 38.288 70.008 38.288 68.598V43.0363C38.288 41.6264 39.4349 40.4794 40.8449 40.4794H59.7002C61.1101 40.4794 62.2571 41.6264 62.2571 43.0363V68.598C62.2571 70.008 63.404 71.1549 64.814 71.1549H72.8499C74.2599 71.1549 75.4068 70.008 75.4068 68.598V2.9734C75.4068 1.56346 74.2599 0.416504 72.8499 0.416504H64.814C63.404 0.416504 62.2571 1.56346 62.2571 2.9734V26.8329C62.2571 28.2429 61.1101 29.3898 59.7002 29.3898H40.8449C39.4349 29.3898 38.288 28.2429 38.288 26.8329V2.9734C38.288 1.56346 37.141 0.416504 35.7311 0.416504H27.7024C26.2925 0.416504 25.1455 1.56346 25.1455 2.9734Z" fill="#494949"/>
<path d="M181.709 58.6261V67.0638H185.931V45.9731C185.931 43.0509 185.383 40.2968 184.287 37.7033C183.192 35.1172 181.701 32.8818 179.816 30.997C177.932 29.1122 175.696 27.6219 173.11 26.526C170.524 25.4302 167.77 24.8823 164.848 24.8823C161.925 24.8823 159.091 25.4302 156.534 26.526C153.97 27.6219 151.756 29.1122 149.871 30.997C147.987 32.8818 146.496 35.1172 145.401 37.7033C144.305 40.2895 143.757 43.0509 143.757 45.9731C143.757 48.8952 144.305 51.7297 145.401 54.2866C146.496 56.8508 147.987 59.0644 149.871 60.9492C151.756 62.834 153.977 64.3243 156.534 65.4201C159.091 66.5159 161.867 67.0638 164.848 67.0638C168.223 67.0638 171.393 66.2895 174.381 64.7407C177.362 63.1993 179.809 61.1537 181.723 58.6261M164.84 62.8486C162.539 62.8486 160.355 62.403 158.302 61.4971C156.249 60.5985 154.467 59.3858 152.94 57.8736C151.428 56.3541 150.215 54.5643 149.316 52.5114C148.418 50.4586 147.965 48.2816 147.965 45.9731C147.965 43.6646 148.418 41.4875 149.316 39.4347C150.215 37.3819 151.428 35.5994 152.94 34.0725C154.459 32.553 156.242 31.3476 158.302 30.4491C160.355 29.5505 162.532 29.0976 164.84 29.0976C167.149 29.0976 169.326 29.5505 171.379 30.4491C173.431 31.3476 175.214 32.5603 176.741 34.0725C178.26 35.5921 179.466 37.3746 180.364 39.4347C181.263 41.4875 181.716 43.6646 181.716 45.9731C181.716 48.2816 181.263 50.4586 180.364 52.5114C179.466 54.5643 178.253 56.3468 176.741 57.8736C175.229 59.3858 173.431 60.5985 171.379 61.4971C169.326 62.3957 167.149 62.8486 164.84 62.8486Z" fill="#494949"/>
<path d="M187.925 69.0655H179.699V63.6011C178.37 64.7115 176.894 65.6904 175.287 66.5232C172.036 68.2108 168.515 69.0655 164.833 69.0655C161.589 69.0655 158.528 68.4592 155.73 67.2611C152.947 66.063 150.492 64.4193 148.439 62.3664C146.386 60.3136 144.735 57.859 143.545 55.0756C142.347 52.2777 141.74 49.2167 141.74 45.9731C141.74 42.7295 142.347 39.7415 143.545 36.929C144.743 34.1164 146.386 31.6471 148.447 29.587C150.507 27.5269 152.961 25.8832 155.737 24.6924C158.535 23.4943 161.596 22.8879 164.84 22.8879C168.084 22.8879 171.064 23.4943 173.891 24.6924C176.704 25.8832 179.173 27.5342 181.233 29.5943C183.293 31.6544 184.937 34.1237 186.135 36.929C187.333 39.7562 187.94 42.8025 187.94 45.9731V69.0655H187.925ZM183.71 65.0621H183.929V45.9731C183.929 43.3358 183.425 40.8154 182.439 38.485C181.453 36.1546 180.086 34.1018 178.399 32.4142C176.704 30.7194 174.666 29.3605 172.328 28.3743C169.998 27.3881 167.485 26.884 164.84 26.884C162.195 26.884 159.617 27.3808 157.323 28.367C155.014 29.3532 152.983 30.7194 151.281 32.4142C149.586 34.1091 148.227 36.1473 147.234 38.485C146.248 40.8154 145.744 43.3285 145.744 45.9731C145.744 48.6176 146.24 51.2038 147.227 53.4904C148.213 55.8062 149.579 57.8371 151.274 59.5319C152.969 61.2268 155 62.5856 157.315 63.5791C159.609 64.5654 162.144 65.0621 164.833 65.0621C167.872 65.0621 170.765 64.3608 173.446 62.9655C176.149 61.5628 178.384 59.7 180.116 57.4207L183.71 52.6648V65.0694V65.0621ZM164.833 64.8357C162.254 64.8357 159.785 64.3243 157.491 63.3161C155.219 62.3226 153.21 60.9565 151.522 59.2762C149.835 57.5814 148.476 55.5724 147.475 53.3077C146.467 51.0065 145.963 48.5373 145.963 45.9658C145.963 43.3943 146.474 40.925 147.475 38.6238C148.469 36.3518 149.835 34.3428 151.522 32.6553C153.21 30.9677 155.226 29.6089 157.491 28.6081C159.792 27.5999 162.261 27.0959 164.833 27.0959C167.404 27.0959 169.873 27.6072 172.167 28.6081C174.447 29.6089 176.448 30.9677 178.136 32.6553C179.823 34.3428 181.182 36.3518 182.183 38.6238C183.191 40.925 183.695 43.3943 183.695 45.9658C183.695 48.5373 183.184 51.0065 182.183 53.3077C181.19 55.587 179.823 57.5887 178.136 59.2762C176.448 60.9711 174.432 62.3299 172.167 63.3235C169.873 64.3316 167.404 64.8357 164.825 64.8357H164.84H164.833ZM164.833 31.0919C162.816 31.0919 160.888 31.4937 159.098 32.2754C157.286 33.0717 155.686 34.1529 154.349 35.4825C153.02 36.8194 151.939 38.4193 151.142 40.231C150.361 42.0208 149.959 43.9495 149.959 45.9658C149.959 47.9821 150.353 49.9107 151.142 51.7005C151.939 53.5123 153.02 55.1122 154.349 56.449C155.686 57.7859 157.286 58.8598 159.098 59.6561C160.88 60.4378 162.816 60.8396 164.833 60.8396C166.849 60.8396 168.778 60.4451 170.567 59.6634C172.379 58.8671 173.979 57.7859 175.316 56.4564C176.646 55.1268 177.727 53.5269 178.523 51.7078C179.305 49.918 179.707 47.9894 179.707 45.9731C179.707 43.9568 179.305 42.0281 178.523 40.2383C177.727 38.4266 176.646 36.8267 175.316 35.4971C173.986 34.1675 172.386 33.0863 170.567 32.29C168.778 31.5083 166.849 31.1065 164.833 31.1065V31.0919Z" fill="#494949"/>
<path d="M188.02 69.1532H179.619V63.791C178.318 64.8576 176.894 65.7927 175.338 66.5963C172.072 68.2912 168.536 69.1532 164.84 69.1532C161.589 69.1532 158.513 68.5395 155.708 67.3415C152.91 66.1434 150.455 64.485 148.388 62.4249C146.321 60.3575 144.67 57.9028 143.479 55.1049C142.281 52.2996 141.667 49.224 141.667 45.9731C141.667 42.7222 142.281 39.7197 143.479 36.8925C144.677 34.0653 146.335 31.5887 148.395 29.5213C150.463 27.4538 152.925 25.8028 155.715 24.612C158.521 23.4066 161.596 22.8003 164.847 22.8003C168.098 22.8003 171.093 23.4139 173.928 24.612C176.755 25.8101 179.231 27.4685 181.299 29.5286C183.366 31.596 185.025 34.0726 186.215 36.8925C187.414 39.727 188.027 42.7879 188.027 45.9804V69.1678L188.013 69.1532H188.02ZM183.805 64.9745H183.841V45.9731C183.841 43.3504 183.344 40.8374 182.358 38.5216C181.372 36.1984 180.02 34.1602 178.333 32.48C176.653 30.7997 174.614 29.4409 172.284 28.462C169.968 27.4758 167.462 26.979 164.832 26.979C162.203 26.979 159.631 27.4758 157.344 28.4547C155.043 29.4409 153.02 30.7924 151.332 32.48C149.652 34.1602 148.293 36.1984 147.307 38.5216C146.321 40.8374 145.831 43.3431 145.831 45.9731C145.831 48.603 146.328 51.1746 147.307 53.4612C148.293 55.7697 149.645 57.786 151.332 59.4735C153.02 61.1611 155.036 62.5126 157.344 63.4988C159.624 64.4777 162.151 64.9745 164.832 64.9745C167.85 64.9745 170.735 64.2732 173.402 62.8851C176.09 61.4898 178.318 59.6342 180.035 57.3622L183.797 52.3873V64.9672L183.805 64.9745ZM164.832 64.938C162.239 64.938 159.763 64.4266 157.454 63.4111C155.175 62.4176 153.158 61.0442 151.456 59.342C149.754 57.6399 148.388 55.6236 147.387 53.3443C146.372 51.0357 145.86 48.5519 145.86 45.9658C145.86 43.3797 146.372 40.8958 147.387 38.5873C148.388 36.308 149.754 34.2917 151.449 32.5969C153.151 30.8947 155.167 29.5286 157.447 28.5277C159.755 27.5123 162.239 27.0009 164.825 27.0009C167.411 27.0009 169.895 27.5123 172.204 28.5277C174.49 29.5286 176.507 30.8947 178.201 32.5969C179.896 34.299 181.27 36.308 182.271 38.5873C183.286 40.9031 183.797 43.387 183.797 45.9658C183.797 48.5446 183.286 51.0357 182.271 53.3443C181.27 55.6236 179.904 57.6472 178.201 59.342C176.499 61.0442 174.483 62.4103 172.204 63.4111C169.902 64.4266 167.419 64.938 164.825 64.938H164.832ZM164.832 31.1869C162.831 31.1869 160.917 31.5814 159.134 32.3558C157.33 33.1448 155.745 34.2187 154.415 35.5483C153.085 36.8778 152.011 38.4631 151.222 40.2676C150.448 42.0428 150.054 43.9641 150.054 45.9658C150.054 47.9675 150.448 49.8888 151.222 51.664C152.011 53.4685 153.085 55.0537 154.415 56.3833C155.745 57.7129 157.33 58.7868 159.134 59.5758C160.909 60.3502 162.831 60.7447 164.832 60.7447C166.834 60.7447 168.755 60.3502 170.531 59.5758C172.335 58.7868 173.92 57.7129 175.25 56.3833C176.58 55.0537 177.654 53.4758 178.442 51.664C179.217 49.8888 179.611 47.9675 179.611 45.9658C179.611 43.9641 179.217 42.0501 178.442 40.2676C177.654 38.4631 176.58 36.8778 175.25 35.5483C173.92 34.2187 172.335 33.1448 170.531 32.3558C168.755 31.5814 166.834 31.1869 164.832 31.1869Z" fill="#494949"/>
<path d="M187.538 71.1548H180.101C178.728 71.1548 177.617 70.0444 177.617 68.671C177.617 68.218 177.135 67.9185 176.733 68.1304L176.258 68.3788C172.708 70.227 168.865 71.1548 164.84 71.1548C161.311 71.1548 157.98 70.49 154.919 69.1751C151.887 67.8747 149.214 66.0776 146.971 63.8348C144.728 61.592 142.931 58.9182 141.631 55.8865C140.323 52.8328 139.658 49.4942 139.658 45.9657C139.658 42.4372 140.323 39.179 141.623 36.1034C142.924 33.0424 144.721 30.3467 146.971 28.104C149.221 25.8539 151.887 24.0641 154.919 22.7637C157.98 21.456 161.319 20.7839 164.84 20.7839C168.361 20.7839 171.619 21.4487 174.702 22.7564C177.763 24.0568 180.459 25.8539 182.709 28.104C184.959 30.354 186.756 33.0424 188.057 36.1034C189.364 39.1936 190.029 42.5103 190.029 45.9657V68.671C190.029 70.0444 188.911 71.1548 187.538 71.1548ZM182.556 67.1514H185.091C185.602 67.1514 186.026 66.735 186.026 66.2164V45.9657C186.026 43.0436 185.471 40.2529 184.375 37.6595C183.279 35.0733 181.767 32.8087 179.882 30.9239C177.997 29.0391 175.732 27.5341 173.146 26.431C170.56 25.3352 167.762 24.78 164.84 24.78C161.918 24.78 159.054 25.3352 156.497 26.431C153.94 27.5268 151.69 29.0391 149.805 30.9239C147.921 32.8087 146.416 35.0733 145.313 37.6595C144.217 40.2456 143.662 43.0363 143.662 45.9657C143.662 48.8952 144.217 51.7516 145.313 54.3085C146.408 56.8727 147.921 59.1155 149.805 61.0076C151.69 62.8924 153.94 64.3973 156.497 65.5004C159.054 66.5962 161.859 67.1514 164.84 67.1514C168.215 67.1514 171.437 66.3698 174.417 64.821C175.842 64.0832 177.172 63.2138 178.355 62.2422L180.101 60.8103C180.707 60.3136 181.621 60.7446 181.621 61.5336V66.2164C181.621 66.7277 182.037 67.1514 182.556 67.1514ZM185.836 66.9761H182.746C182.234 66.9761 181.825 66.567 181.81 66.0629L181.789 64.9744V58.3557L181.621 58.5749C179.721 61.088 177.259 63.1335 174.308 64.6676C171.356 66.2017 168.157 66.9761 164.818 66.9761C161.859 66.9761 159.076 66.4282 156.541 65.3397C153.999 64.2512 151.771 62.7536 149.908 60.8907C148.045 59.0278 146.547 56.7924 145.451 54.2501C144.363 51.7151 143.815 48.9317 143.815 45.973C143.815 43.0143 144.363 40.304 145.451 37.7398C146.54 35.1756 148.038 32.9329 149.908 31.0627C151.778 29.1925 154.006 27.6949 156.541 26.6137C159.076 25.5252 161.859 24.9772 164.818 24.9772C167.777 24.9772 170.487 25.5252 173.051 26.6137C175.616 27.7022 177.858 29.1998 179.728 31.0627C181.599 32.9329 183.089 35.1756 184.185 37.7398C185.273 40.304 185.828 43.0728 185.828 45.973V66.9761H185.836ZM164.833 29.0025C162.524 29.0025 160.318 29.4628 158.258 30.3613C156.205 31.2672 154.393 32.4872 152.874 34.0067C151.354 35.5263 150.127 37.338 149.228 39.3908C148.33 41.4437 147.87 43.6572 147.87 45.9657C147.87 48.2742 148.33 50.4805 149.228 52.5406C150.127 54.5934 151.354 56.3979 152.874 57.9247C154.393 59.4442 156.205 60.6715 158.258 61.5701C160.311 62.476 162.524 62.9289 164.833 62.9289C167.141 62.9289 169.355 62.4687 171.4 61.5701C173.453 60.6715 175.265 59.4442 176.784 57.9247C178.304 56.4052 179.531 54.5934 180.43 52.5406C181.328 50.4878 181.789 48.2742 181.789 45.9657C181.789 43.6572 181.328 41.451 180.43 39.3908C179.531 37.338 178.304 35.5263 176.784 34.0067C175.272 32.4945 173.453 31.2599 171.4 30.3613C169.34 29.4628 167.134 29.0025 164.833 29.0025ZM164.833 62.7609C162.546 62.7609 160.362 62.308 158.331 61.4167C156.3 60.5327 154.51 59.32 152.998 57.8078C151.493 56.2956 150.273 54.5058 149.389 52.4749C148.498 50.444 148.045 48.2523 148.045 45.973C148.045 43.6937 148.498 41.5094 149.389 39.4712C150.28 37.4403 151.493 35.6432 152.998 34.1382C154.503 32.6333 156.3 31.4206 158.331 30.5294C160.369 29.6381 162.553 29.1852 164.833 29.1852C167.112 29.1852 169.296 29.6381 171.335 30.5294C173.373 31.4206 175.163 32.6333 176.667 34.1382C178.172 35.6432 179.385 37.433 180.276 39.4712C181.168 41.5094 181.621 43.6937 181.621 45.973C181.621 48.2523 181.168 50.4366 180.276 52.4749C179.385 54.5131 178.172 56.3029 176.667 57.8078C175.163 59.3127 173.365 60.5327 171.335 61.4167C169.304 62.308 167.119 62.7609 164.833 62.7609ZM164.833 33.1958C163.109 33.1958 161.465 33.5319 159.938 34.204C158.367 34.898 156.979 35.8258 155.832 36.9801C154.685 38.1343 153.75 39.515 153.056 41.0857C152.384 42.6052 152.048 44.2563 152.048 45.9803C152.048 47.7044 152.384 49.3554 153.056 50.875C153.75 52.4456 154.678 53.8337 155.832 54.9806C156.979 56.1276 158.367 57.0627 159.931 57.7494C161.45 58.4215 163.101 58.7575 164.825 58.7575C166.549 58.7575 168.2 58.4215 169.72 57.7494C171.291 57.0554 172.679 56.1276 173.826 54.9733C174.973 53.8264 175.908 52.4383 176.602 50.8677C177.274 49.3481 177.61 47.6971 177.61 45.973C177.61 44.249 177.274 42.6052 176.602 41.0784C175.908 39.5077 174.98 38.1197 173.826 36.9728C172.679 35.8258 171.298 34.8907 169.72 34.1967C168.2 33.5246 166.549 33.1885 164.825 33.1885L164.833 33.1958Z" fill="#494949"/>
<path d="M357.827 9.65046C353.48 3.65271 346.788 0 336.787 0C326.786 0 320.014 3.65271 315.667 9.65046C310.626 16.6929 309.494 25.9927 309.494 35.5555C309.494 45.1183 310.626 54.5934 315.667 61.6359C320.014 67.6336 326.706 71.1986 336.787 71.1986C346.869 71.1986 353.48 67.6336 357.827 61.6359C362.868 54.5934 364 45.206 364 35.5555C364 25.905 362.868 16.6929 357.827 9.65046ZM351.398 49.4285C351.398 57.1284 344.933 62.9654 336.787 63.3161C328.554 62.9654 322.089 57.1357 322.089 49.4285V37.7033C324.843 39.5589 329.46 40.5086 333.412 40.9542V40.9396C334.508 41.0492 335.618 41.1295 336.743 41.1295C337.868 41.1295 339.045 41.0492 340.17 40.9323C343.91 40.5451 348.439 39.5369 351.398 37.9882V49.4285ZM351.486 33.9629C348.739 35.8185 340.9 37.5864 336.787 37.506C332.784 37.506 324.762 36.1107 321.994 34.2405V21.8578C321.994 14.5962 328.496 8.13824 336.787 7.88986C345.495 8.13824 351.486 14.6035 351.486 21.8578V33.9629Z" fill="#F29600"/>
</g>
<defs>
<clipPath id="clip0_663_2944">
<rect width="364" height="72.068" fill="white"/>
</clipPath>
</defs>
</svg>
