<svg width="269" height="226" viewBox="0 0 269 226" fill="none" xmlns="http://www.w3.org/2000/svg">
<g clip-path="url(#clip0_641_84)">
<path d="M68.8687 219.88V214.92H83.7395V212.73H68.8687V204.202H84.3507V201.969H66.104V220.257C66.104 223.476 68.4176 225.666 71.8516 225.666H84.4234V223.433H72.4627C70.2946 223.433 68.8832 222.012 68.8832 219.865" fill="#717171"/>
<path d="M107.21 201.664C105.26 201.664 104.373 202.65 103.732 204.289L95.031 225.695H98.1158L100.386 219.996H114.049L116.319 225.695H119.374L110.717 204.289C110.047 202.665 109.189 201.664 107.195 201.664M101.288 217.791L106.191 205.551C106.541 204.666 106.832 204.449 107.225 204.449C107.617 204.449 107.938 204.666 108.287 205.551L113.19 217.791H101.302H101.288Z" fill="#717171"/>
<path d="M150.63 209.336C150.63 204.275 147.719 201.983 142.001 201.983H130.535V225.696H133.3V216.747H141.71L147.996 225.696H151.328L144.795 216.501C148.665 215.761 150.615 213.31 150.615 209.351M133.3 214.543V204.217H141.885C145.828 204.217 147.705 205.768 147.705 209.351C147.705 212.643 145.857 214.557 141.885 214.557H133.3V214.543Z" fill="#717171"/>
<path d="M189.902 215.253L181.026 201.983H177.796L188.52 217.762V225.696H191.284V217.762L202.008 201.983H198.778L189.902 215.253Z" fill="#717171"/>
<path d="M224.227 201.664C216.093 201.664 212.077 205.841 212.077 213.803C212.077 221.765 216.093 226.015 224.227 226.015C232.361 226.015 236.363 221.838 236.363 213.803C236.363 205.768 232.347 201.664 224.227 201.664ZM224.227 223.709C217.912 223.709 214.929 220.387 214.929 213.832C214.929 207.277 217.912 203.956 224.227 203.956C230.542 203.956 233.525 207.277 233.525 213.832C233.525 220.387 230.542 223.709 224.227 223.709Z" fill="#717171"/>
<path d="M2.76465 201.983H0V225.696H2.76465V201.983Z" fill="#717171"/>
<path d="M50.5494 212.73H35.0092V201.983H32.23V225.681H35.0092V214.934H50.5494V225.681H53.3286V201.983H50.5494V212.73Z" fill="#F29600"/>
<path d="M266.264 201.983V216.53C266.264 221.91 262.714 223.68 258.553 223.68C254.391 223.68 250.812 221.91 250.812 216.53V201.983H248.047V216.356C248.047 222.65 252.267 226.015 258.553 226.015C264.838 226.015 268.985 222.65 268.985 216.356V201.983H266.25H266.264Z" fill="#717171"/>
<path d="M11.3932 0H0V181.824H11.3932V0Z" fill="#717171"/>
<path d="M268.767 132.644V0.536621H258.276V133.572C258.276 158.648 244.249 173.905 218.8 173.905C193.351 173.905 179.134 158.648 179.134 133.572V0.536621H168.469V132.644C168.469 163.289 187.283 183.028 218.785 183.028C250.288 183.028 268.753 163.289 268.753 132.644" fill="#717171"/>
<path d="M92.4848 0.58013V12.6901C109.611 13.9954 129.72 33.0668 129.72 55.1404V83.8998C122.052 89.5414 109.189 93.2832 98.2032 94.661C95.0602 95.0526 91.8591 95.3136 88.5852 95.3136C85.3112 95.3136 82.2992 95.0671 79.229 94.69C68.1413 93.3267 55.1766 89.5705 47.4501 83.8853V55.1404C47.4501 33.0668 68.8689 13.9954 84.9475 12.6466V0.536621C60.1384 0.536621 36.8572 23.3788 36.8572 55.1549V128.67C36.8572 158.706 60.1384 181.592 84.9475 183.274V171.164C65.9587 168.133 47.4501 152.238 47.4501 128.67V97.6921C55.8314 102.464 68.6361 105.567 79.229 106.727C82.3138 107.061 85.4276 107.293 88.5852 107.293C91.7427 107.293 95.0311 107.047 98.2032 106.684C108.709 105.495 121.412 102.42 129.72 97.6921V128.656C129.72 152.223 111.066 168.119 92.4848 171.106V183.216C116.886 181.577 140.313 157.067 140.313 128.656V55.1404C140.313 23.3788 116.886 0.536621 92.4848 0.58013Z" fill="#F29600"/>
</g>
<defs>
<clipPath id="clip0_641_84">
<rect width="269" height="226" fill="white"/>
</clipPath>
</defs>
</svg>
