<svg width="410" height="285" viewBox="0 0 410 285" fill="none" xmlns="http://www.w3.org/2000/svg">
<g clip-path="url(#clip0_44_377)">
<path d="M104.967 275.305V267.673H127.633V264.304H104.967V251.182H128.564V247.746H100.754V275.885C100.754 280.839 104.28 284.209 109.514 284.209H128.675V280.772H110.445C107.141 280.772 104.989 278.586 104.989 275.283" fill="#8C8C8B"/>
<path d="M163.406 247.255C160.434 247.255 159.081 248.772 158.105 251.294L144.843 284.231H149.545L153.004 275.461H173.829L177.289 284.231H181.946L168.751 251.294C167.73 248.794 166.422 247.255 163.383 247.255M154.379 272.092L161.853 253.257C162.386 251.896 162.829 251.562 163.428 251.562C164.027 251.562 164.515 251.896 165.047 253.257L172.521 272.092H154.402H154.379Z" fill="#8C8C8B"/>
<path d="M229.584 259.082C229.584 251.294 225.148 247.768 216.433 247.768H198.957V284.254H203.17V270.485H215.989L225.57 284.254H230.649L220.691 270.106C226.59 268.968 229.562 265.196 229.562 259.104M203.17 267.071V251.182H216.255C222.265 251.182 225.126 253.57 225.126 259.082C225.126 264.147 222.31 267.093 216.255 267.093H203.17V267.071Z" fill="#8C8C8B"/>
<path d="M289.442 268.164L275.913 247.746H270.99L287.335 272.025V284.231H291.549V272.025L307.894 247.746H302.97L289.442 268.164Z" fill="#8C8C8B"/>
<path d="M341.759 247.255C329.362 247.255 323.241 253.681 323.241 265.933C323.241 278.184 329.362 284.722 341.759 284.722C354.157 284.722 360.255 278.295 360.255 265.933C360.255 253.57 354.134 247.255 341.759 247.255ZM341.759 281.174C332.134 281.174 327.588 276.064 327.588 265.977C327.588 255.891 332.134 250.78 341.759 250.78C351.384 250.78 355.931 255.891 355.931 265.977C355.931 276.064 351.384 281.174 341.759 281.174Z" fill="#8C8C8B"/>
<path d="M4.21377 247.746H0V284.231H4.21377V247.746Z" fill="#F39800"/>
<path d="M77.0455 264.304H53.3597V247.746H49.1237V284.231H53.3597V267.673H77.0455V284.231H81.2815V247.746H77.0455V264.304Z" fill="#F39800"/>
<path d="M405.831 247.746V270.128C405.831 278.407 400.419 281.129 394.076 281.129C387.734 281.129 382.278 278.407 382.278 270.128V247.746H378.064V269.86C378.064 279.545 384.496 284.722 394.076 284.722C403.657 284.722 409.978 279.545 409.978 269.86V247.746H405.808H405.831Z" fill="#F39800"/>
<path d="M17.3652 6.6723H0V210.97H17.3652V6.6723Z" fill="#727171"/>
<path d="M409.645 140.966V6.6723H393.655V142.395C393.655 181.023 372.276 202.311 333.487 202.311C294.698 202.311 273.03 181.045 273.03 142.395V6.6723H256.774V140.966C256.774 188.186 285.45 216.37 333.465 216.37C381.479 216.37 409.623 188.186 409.623 140.966" fill="#727171"/>
<path d="M152.3 6.77131V25.9393C181.152 31.5108 203.031 57.1703 203.031 87.9413V99.0076C189.464 107.927 171.754 113.831 152.3 116.029C146.742 116.668 141.057 117.051 135.272 117.051C129.486 117.051 124.13 116.668 118.723 116.08C99.0928 113.933 81.2054 108.004 67.5373 99.0076V87.9413C67.5373 57.0169 89.6691 31.2552 118.723 25.8626V6.69464C79.2853 12.2661 48.791 46.5129 48.791 87.9157V130.775C48.791 172.178 79.2853 206.425 118.723 211.996V192.854C89.6438 187.487 67.5373 161.725 67.5373 130.775V120.782C82.3676 128.322 99.977 133.229 118.723 135.069C124.18 135.606 129.688 135.963 135.272 135.963C140.855 135.963 146.691 135.58 152.3 135.018C170.895 133.152 188.327 128.271 203.031 120.782V130.75C203.031 161.521 181.152 187.18 152.3 192.752V211.894C191.51 206.118 221.777 171.999 221.777 130.75V87.8902C221.777 46.6662 191.536 12.5217 152.3 6.77131Z" fill="#F39800"/>
</g>
<defs>
<clipPath id="clip0_44_377">
<rect width="410" height="284.722" fill="white"/>
</clipPath>
</defs>
</svg>
